<mxfile host="app.diagrams.net" modified="2021-04-18T05:13:18.918Z" agent="5.0 (Windows NT 10.0; WOW64) AppleWebKit/537.36 (KHTML, like Gecko) Chrome/86.0.4240.198 Safari/537.36" etag="pRizIX_esISQMNkDh6ev" version="14.6.1" type="github">
  <diagram id="b8vTg0bY8sTFj-NJI612" name="Page-1">
    <mxGraphModel dx="782" dy="373" grid="1" gridSize="10" guides="1" tooltips="1" connect="1" arrows="1" fold="1" page="1" pageScale="1" pageWidth="827" pageHeight="1169" math="0" shadow="0">
      <root>
        <mxCell id="0" />
        <mxCell id="1" parent="0" />
        <mxCell id="N7gucrENt_Ro0j6abz8G-9" value="" style="edgeStyle=orthogonalEdgeStyle;rounded=0;orthogonalLoop=1;jettySize=auto;html=1;" edge="1" parent="1" source="N7gucrENt_Ro0j6abz8G-5" target="N7gucrENt_Ro0j6abz8G-8">
          <mxGeometry relative="1" as="geometry" />
        </mxCell>
        <mxCell id="N7gucrENt_Ro0j6abz8G-5" value="POS" style="rounded=1;whiteSpace=wrap;html=1;" vertex="1" parent="1">
          <mxGeometry x="60" y="190" width="60" height="30" as="geometry" />
        </mxCell>
        <mxCell id="N7gucrENt_Ro0j6abz8G-11" value="" style="edgeStyle=orthogonalEdgeStyle;rounded=0;orthogonalLoop=1;jettySize=auto;html=1;" edge="1" parent="1" source="N7gucrENt_Ro0j6abz8G-8" target="N7gucrENt_Ro0j6abz8G-10">
          <mxGeometry relative="1" as="geometry" />
        </mxCell>
        <mxCell id="N7gucrENt_Ro0j6abz8G-8" value="网银" style="rounded=1;whiteSpace=wrap;html=1;" vertex="1" parent="1">
          <mxGeometry x="187" y="190" width="60" height="30" as="geometry" />
        </mxCell>
        <mxCell id="N7gucrENt_Ro0j6abz8G-13" value="" style="edgeStyle=orthogonalEdgeStyle;rounded=0;orthogonalLoop=1;jettySize=auto;html=1;" edge="1" parent="1" source="N7gucrENt_Ro0j6abz8G-10" target="N7gucrENt_Ro0j6abz8G-12">
          <mxGeometry relative="1" as="geometry" />
        </mxCell>
        <mxCell id="N7gucrENt_Ro0j6abz8G-10" value="CCSVC" style="rounded=1;whiteSpace=wrap;html=1;" vertex="1" parent="1">
          <mxGeometry x="310" y="190" width="60" height="30" as="geometry" />
        </mxCell>
        <mxCell id="N7gucrENt_Ro0j6abz8G-12" value="CCSSC" style="rounded=1;whiteSpace=wrap;html=1;" vertex="1" parent="1">
          <mxGeometry x="310" y="270" width="60" height="30" as="geometry" />
        </mxCell>
        <mxCell id="N7gucrENt_Ro0j6abz8G-14" value="装机流程" style="text;html=1;strokeColor=none;fillColor=none;align=center;verticalAlign=middle;whiteSpace=wrap;rounded=0;" vertex="1" parent="1">
          <mxGeometry x="60" y="160" width="60" height="20" as="geometry" />
        </mxCell>
        <mxCell id="N7gucrENt_Ro0j6abz8G-16" value="" style="endArrow=classic;startArrow=classic;html=1;entryX=0.5;entryY=1;entryDx=0;entryDy=0;exitX=0;exitY=0.5;exitDx=0;exitDy=0;" edge="1" parent="1" source="N7gucrENt_Ro0j6abz8G-12" target="N7gucrENt_Ro0j6abz8G-8">
          <mxGeometry width="50" height="50" relative="1" as="geometry">
            <mxPoint x="340" y="290" as="sourcePoint" />
            <mxPoint x="390" y="240" as="targetPoint" />
          </mxGeometry>
        </mxCell>
      </root>
    </mxGraphModel>
  </diagram>
</mxfile>
